<?xml version="1.0" encoding="UTF-8" standalone="no"?>
<svg width="106px" height="43px" viewBox="0 0 106 43" version="1.1" xmlns="http://www.w3.org/2000/svg" xmlns:xlink="http://www.w3.org/1999/xlink">
    <!-- Generator: Sketch 3.8.3 (29802) - http://www.bohemiancoding.com/sketch -->
    <title>GLASSER Copy</title>
    <desc>Created with Sketch.</desc>
    <defs></defs>
    <g id="Page-2" stroke="none" stroke-width="1" fill="none" fill-rule="evenodd">
        <g id="Desktop-HD-Copy-2" transform="translate(-257.000000, -73.000000)" fill="#222222">
            <path d="M272.09401,86.5026358 L272.09401,82.2784086 C272.09401,82.0569124 272.01886,81.8670614 271.868559,81.7088498 C271.718258,81.5506383 271.532362,81.4715337 271.310866,81.4715337 L266.161106,81.4715337 C265.971252,81.4715337 265.809088,81.5387726 265.674608,81.6732524 C265.540128,81.8077322 265.472889,81.9698967 265.472889,82.1597505 C265.472889,82.3496044 265.540128,82.515724 265.674608,82.6581144 C265.809088,82.8005048 265.971252,82.8716989 266.161106,82.8716989 L270.527723,82.8716989 L270.527723,86.3839778 C269.973983,87.1433932 269.258086,87.7366776 268.380012,88.1638488 C267.501938,88.59102 266.524996,88.8046024 265.449158,88.8046024 C264.484067,88.8046024 263.609962,88.6187066 262.826814,88.2469095 C262.043667,87.8751123 261.375233,87.3727982 260.821493,86.739952 C260.267753,86.1071058 259.840588,85.3793436 259.539986,84.5566435 C259.239384,83.7339434 259.089085,82.8796139 259.089085,81.9936292 C259.089085,81.1076445 259.239384,80.2572702 259.539986,79.4424807 C259.840588,78.6276912 260.267753,77.9038843 260.821493,77.2710381 C261.375233,76.6381919 262.043667,76.1358777 262.826814,75.7640806 C263.609962,75.3922834 264.484067,75.2063877 265.449158,75.2063877 C266.44589,75.2063877 267.30022,75.3922834 268.012172,75.7640806 C268.724124,76.1358777 269.356961,76.5511768 269.910701,77.0099903 C270.03727,77.1207384 270.20339,77.1761116 270.409065,77.1761116 C270.61474,77.1761116 270.772949,77.1128279 270.883697,76.9862587 C270.994445,76.8755106 271.049819,76.7173014 271.049819,76.5116264 C271.049819,76.3059514 270.986535,76.1398318 270.859966,76.0132625 C269.388598,74.5418951 267.585014,73.8062224 265.449158,73.8062224 C264.310035,73.8062224 263.253988,74.0277153 262.280987,74.4707076 C261.307986,74.9137 260.473433,75.5109396 259.777302,76.2624445 C259.081171,77.0139493 258.53535,77.8840998 258.139821,78.872922 C257.744292,79.8617442 257.54653,80.9019695 257.54653,81.9936292 C257.54653,83.0852889 257.744292,84.1255142 258.139821,85.1143364 C258.53535,86.1031586 259.081171,86.9733091 259.777302,87.724814 C260.473433,88.4763188 261.307986,89.0775137 262.280987,89.5284166 C263.253988,89.9793195 264.310035,90.2047676 265.449158,90.2047676 C266.730671,90.2047676 267.929106,89.935812 269.044497,89.3978927 C270.159889,88.8599735 271.113099,88.0689276 271.904157,87.0247313 C272.030726,86.8506986 272.09401,86.6766685 272.09401,86.5026358 L272.09401,86.5026358 Z M286.760147,89.1605766 C286.760147,88.9549016 286.692908,88.7887819 286.558428,88.6622127 C286.423948,88.5356435 286.253874,88.4723598 286.048199,88.4723598 L277.69467,88.4723598 L277.69467,74.6605605 C277.69467,74.4390644 277.619521,74.2531686 277.46922,74.1028676 C277.318919,73.9525666 277.133023,73.8774173 276.911527,73.8774173 C276.690031,73.8774173 276.504135,73.9525666 276.353834,74.1028676 C276.203533,74.2531686 276.128384,74.4390644 276.128384,74.6605605 L276.128384,89.1131134 C276.128384,89.3346095 276.203533,89.5205053 276.353834,89.6708063 C276.504135,89.8211073 276.690031,89.8962566 276.911527,89.8962566 L286.048199,89.8962566 C286.253874,89.8962566 286.423948,89.8250625 286.558428,89.6826721 C286.692908,89.5402817 286.760147,89.3662516 286.760147,89.1605766 L286.760147,89.1605766 Z M303.063766,89.3504295 L303.063766,89.2080398 C303.063766,89.1447552 303.047945,89.089382 303.016302,89.0419185 L296.323987,74.328318 C296.292345,74.2492122 296.217196,74.1542867 296.098537,74.0435386 C295.979878,73.9327905 295.833535,73.8774173 295.659502,73.8774173 C295.485469,73.8774173 295.335171,73.9327905 295.208601,74.0435386 C295.082032,74.1542867 295.002928,74.2492122 294.971285,74.328318 L288.27897,89.0419185 C288.247328,89.089382 288.231507,89.1447552 288.231507,89.2080398 L288.231507,89.3504295 C288.231507,89.6668526 288.373895,89.8883454 288.658676,90.0149147 C288.753603,90.0623781 288.856439,90.0861095 288.967187,90.0861095 C289.109577,90.0861095 289.2401,90.042602 289.358759,89.9555856 C289.477417,89.8685693 289.568388,89.7617781 289.631672,89.6352089 L291.601396,85.2685919 L299.693876,85.2685919 L301.687332,89.6589405 C301.750617,89.8013309 301.841587,89.9081221 301.960246,89.9793173 C302.078904,90.0505125 302.209427,90.0861095 302.351817,90.0861095 C302.446744,90.0861095 302.54167,90.0623781 302.636597,90.0149147 C302.921377,89.8883454 303.063766,89.6668526 303.063766,89.3504295 L303.063766,89.3504295 Z M299.076854,83.9158899 L292.218418,83.9158899 L295.659502,76.3217735 L299.076854,83.9158899 Z M317.302734,85.814419 C317.302734,85.2132151 317.180122,84.6871696 316.934894,84.2362667 C316.689666,83.7853638 316.349516,83.3898409 315.914434,83.049686 C315.479353,82.7095312 314.965173,82.4049785 314.37188,82.1360189 C313.778586,81.8670593 313.133884,81.6139246 312.437753,81.3766073 C311.694159,81.1234688 311.009904,80.8782446 310.384968,80.6409272 C309.760033,80.4036099 309.218166,80.1544304 308.759353,79.8933814 C308.300539,79.6323323 307.944569,79.3356901 307.69143,79.0034459 C307.438292,78.6712016 307.311724,78.2756787 307.311724,77.8168652 C307.311724,77.3580517 307.422471,76.966484 307.643967,76.6421503 C307.865463,76.3178166 308.166061,76.048861 308.545768,75.8352754 C308.925476,75.6216898 309.364507,75.4634807 309.862873,75.3606432 C310.361239,75.2578056 310.887285,75.2063877 311.441025,75.2063877 C312.374473,75.2063877 313.205072,75.332955 313.932845,75.5860935 C314.660618,75.839232 315.38047,76.1952026 316.092422,76.6540161 C316.218991,76.7331219 316.353469,76.7726742 316.495859,76.7726742 C316.717355,76.7726742 316.907206,76.6698382 317.065418,76.4641632 C317.144524,76.337594 317.184076,76.2110266 317.184076,76.0844574 C317.184076,75.8471401 317.08124,75.6493786 316.875565,75.491167 C316.226897,75.0007112 315.408165,74.5972778 314.419343,74.2808547 C313.430521,73.9644316 312.437758,73.8062224 311.441025,73.8062224 C310.665789,73.8062224 309.934071,73.885327 309.245851,74.0435386 C308.557631,74.2017501 307.956436,74.4430191 307.442248,74.7673528 C306.928061,75.0916865 306.520672,75.5069856 306.22007,76.0132625 C305.919468,76.5195395 305.76917,77.1207344 305.76917,77.8168652 C305.76917,78.4813537 305.903647,79.0469515 306.172607,79.5136756 C306.441567,79.9803996 306.793582,80.3798778 307.228664,80.7121221 C307.663746,81.0443663 308.150239,81.3291428 308.688158,81.5664602 C309.226077,81.8037775 309.763989,82.0173599 310.301908,82.2072137 C311.140429,82.5236368 311.895878,82.8084134 312.568277,83.0615518 C313.240676,83.3146903 313.810229,83.5796907 314.276953,83.8565609 C314.743677,84.1334311 315.103603,84.4300733 315.356742,84.7464964 C315.60988,85.0629195 315.736447,85.4426215 315.736447,85.8856139 C315.736447,86.4235331 315.60988,86.8783845 315.356742,87.2501817 C315.103603,87.6219788 314.771364,87.9225763 314.360014,88.151983 C313.948664,88.3813897 313.485902,88.5475094 312.971714,88.6503469 C312.457527,88.7531844 311.939392,88.8046024 311.417294,88.8046024 C310.420561,88.8046024 309.463395,88.6345275 308.545768,88.2943727 C307.628141,87.9542178 306.781722,87.4519037 306.006486,86.7874152 C305.848274,86.660846 305.682155,86.5975623 305.508122,86.5975623 C305.334089,86.5975623 305.167969,86.6766669 305.009758,86.8348784 C304.89901,86.9614477 304.843637,87.1117464 304.843637,87.2857791 C304.843637,87.475633 304.914831,87.649663 305.057221,87.8078746 C305.405287,88.2192246 305.844317,88.5751953 306.374326,88.8757972 C306.904334,89.1763992 307.462022,89.4255786 308.047405,89.6233431 C308.632787,89.8211075 309.218161,89.967451 309.803544,90.0623779 C310.388927,90.1573048 310.918927,90.2047676 311.393562,90.2047676 C312.200441,90.2047676 312.959845,90.1137973 313.671797,89.931854 C314.383749,89.7499108 315.008675,89.4769999 315.546594,89.1131134 C316.084514,88.7492268 316.511679,88.2943754 316.828102,87.7485456 C317.144525,87.2027157 317.302734,86.5580133 317.302734,85.814419 L317.302734,85.814419 Z M332.253651,85.814419 C332.253651,85.2132151 332.131038,84.6871696 331.885811,84.2362667 C331.640583,83.7853638 331.300433,83.3898409 330.865351,83.049686 C330.430269,82.7095312 329.91609,82.4049785 329.322796,82.1360189 C328.729503,81.8670593 328.084801,81.6139246 327.38867,81.3766073 C326.645075,81.1234688 325.960821,80.8782446 325.335885,80.6409272 C324.71095,80.4036099 324.169083,80.1544304 323.71027,79.8933814 C323.251456,79.6323323 322.895485,79.3356901 322.642347,79.0034459 C322.389209,78.6712016 322.262641,78.2756787 322.262641,77.8168652 C322.262641,77.3580517 322.373388,76.966484 322.594884,76.6421503 C322.81638,76.3178166 323.116977,76.048861 323.496685,75.8352754 C323.876393,75.6216898 324.315423,75.4634807 324.81379,75.3606432 C325.312156,75.2578056 325.838202,75.2063877 326.391942,75.2063877 C327.32539,75.2063877 328.155988,75.332955 328.883761,75.5860935 C329.611535,75.839232 330.331386,76.1952026 331.043338,76.6540161 C331.169908,76.7331219 331.304385,76.7726742 331.446776,76.7726742 C331.668272,76.7726742 331.858123,76.6698382 332.016334,76.4641632 C332.09544,76.337594 332.134993,76.2110266 332.134993,76.0844574 C332.134993,75.8471401 332.032157,75.6493786 331.826482,75.491167 C331.177814,75.0007112 330.359082,74.5972778 329.37026,74.2808547 C328.381437,73.9644316 327.388675,73.8062224 326.391942,73.8062224 C325.616705,73.8062224 324.884988,73.885327 324.196768,74.0435386 C323.508547,74.2017501 322.907353,74.4430191 322.393165,74.7673528 C321.878978,75.0916865 321.471589,75.5069856 321.170987,76.0132625 C320.870385,76.5195395 320.720086,77.1207344 320.720086,77.8168652 C320.720086,78.4813537 320.854564,79.0469515 321.123524,79.5136756 C321.392483,79.9803996 321.744499,80.3798778 322.179581,80.7121221 C322.614662,81.0443663 323.101156,81.3291428 323.639075,81.5664602 C324.176994,81.8037775 324.714905,82.0173599 325.252825,82.2072137 C326.091346,82.5236368 326.846795,82.8084134 327.519194,83.0615518 C328.191593,83.3146903 328.761146,83.5796907 329.22787,83.8565609 C329.694594,84.1334311 330.05452,84.4300733 330.307658,84.7464964 C330.560797,85.0629195 330.687364,85.4426215 330.687364,85.8856139 C330.687364,86.4235331 330.560797,86.8783845 330.307658,87.2501817 C330.05452,87.6219788 329.722281,87.9225763 329.31093,88.151983 C328.89958,88.3813897 328.436819,88.5475094 327.922631,88.6503469 C327.408444,88.7531844 326.890308,88.8046024 326.36821,88.8046024 C325.371478,88.8046024 324.414312,88.6345275 323.496685,88.2943727 C322.579058,87.9542178 321.732639,87.4519037 320.957402,86.7874152 C320.799191,86.660846 320.633071,86.5975623 320.459039,86.5975623 C320.285006,86.5975623 320.118886,86.6766669 319.960675,86.8348784 C319.849927,86.9614477 319.794553,87.1117464 319.794553,87.2857791 C319.794553,87.475633 319.865747,87.649663 320.008138,87.8078746 C320.356203,88.2192246 320.795234,88.5751953 321.325242,88.8757972 C321.855251,89.1763992 322.412938,89.4255786 322.998321,89.6233431 C323.583704,89.8211075 324.169078,89.967451 324.754461,90.0623779 C325.339843,90.1573048 325.869844,90.2047676 326.344479,90.2047676 C327.151358,90.2047676 327.910762,90.1137973 328.622714,89.931854 C329.334666,89.7499108 329.959592,89.4769999 330.497511,89.1131134 C331.03543,88.7492268 331.462595,88.2943754 331.779018,87.7485456 C332.095441,87.2027157 332.253651,86.5580133 332.253651,85.814419 L332.253651,85.814419 Z M347.133372,89.1843082 C347.133372,88.9786332 347.066134,88.8085583 346.931654,88.6740785 C346.797174,88.5395987 346.627099,88.4723598 346.421424,88.4723598 L337.711922,88.4723598 L337.711922,82.373335 L342.434513,82.373335 C342.640188,82.373335 342.810263,82.3060961 342.944743,82.1716163 C343.079222,82.0371365 343.146461,81.8670616 343.146461,81.6613866 C343.146461,81.4557116 343.079222,81.2856367 342.944743,81.1511569 C342.810263,81.0166771 342.640188,80.9494382 342.434513,80.9494382 L337.711922,80.9494382 L337.711922,75.5148986 L346.06545,75.5148986 C346.271125,75.5148986 346.445155,75.4476597 346.587545,75.3131799 C346.729936,75.1787001 346.80113,75.0086252 346.80113,74.8029502 C346.80113,74.5972752 346.729936,74.4272003 346.587545,74.2927205 C346.445155,74.1582407 346.271125,74.0910018 346.06545,74.0910018 L336.95251,74.0910018 C336.731014,74.0910018 336.545118,74.1621959 336.394817,74.3045863 C336.244516,74.4469767 336.169367,74.6289173 336.169367,74.8504135 L336.169367,89.1131134 C336.169367,89.3346095 336.244516,89.5205053 336.394817,89.6708063 C336.545118,89.8211073 336.731014,89.8962566 336.95251,89.8962566 L346.421424,89.8962566 C346.627099,89.8962566 346.797174,89.8290177 346.931654,89.6945379 C347.066134,89.5600581 347.133372,89.3899832 347.133372,89.1843082 L347.133372,89.1843082 Z M362.819969,78.4813504 C362.819969,77.8010407 362.701312,77.1879801 362.463995,76.6421503 C362.226678,76.0963205 361.898394,75.6335586 361.479133,75.2538509 C361.059872,74.8741432 360.565469,74.5854114 359.995907,74.387647 C359.426346,74.1898825 358.801419,74.0910018 358.12111,74.0910018 L351.333868,74.0910018 C351.112372,74.0910018 350.930431,74.1621959 350.788041,74.3045863 C350.645651,74.4469767 350.574456,74.6289173 350.574456,74.8504135 L350.574456,89.3266979 C350.574456,89.5481941 350.645651,89.7301346 350.788041,89.872525 C350.930431,90.0149154 351.112372,90.0861095 351.333868,90.0861095 C351.555364,90.0861095 351.745215,90.0149154 351.903427,89.872525 C352.061638,89.7301346 352.140743,89.5481941 352.140743,89.3266979 L352.140743,82.8242357 L357.954988,82.8242357 C357.954988,82.8242357 357.962899,82.8440118 357.97872,82.8835647 C357.994541,82.9231176 358.057825,83.0536402 358.168573,83.2751364 C358.279321,83.4966325 358.449396,83.8446927 358.678803,84.3193274 C358.908209,84.793962 359.236493,85.466351 359.663665,86.3365145 C360.090836,87.2066781 360.628747,88.3141423 361.277414,89.6589405 C361.435626,89.9437213 361.665029,90.0861095 361.965631,90.0861095 C362.076379,90.0861095 362.179215,90.0623781 362.274142,90.0149147 C362.400711,89.9516301 362.499592,89.8567046 362.570787,89.7301353 C362.641982,89.6035661 362.67758,89.4769987 362.67758,89.3504295 C362.67758,89.2555026 362.653848,89.1447561 362.606385,89.0181869 C361.86279,87.4835349 361.281372,86.2851004 360.862111,85.4228474 C360.44285,84.5605945 360.134343,83.9198473 359.936578,83.5005867 C359.738814,83.0813261 359.620157,82.8281914 359.580604,82.741175 C359.541051,82.6541587 359.521275,82.6106512 359.521275,82.6106512 C360.027552,82.5157242 360.482403,82.3456494 360.885843,82.1004215 C361.289282,81.8551936 361.633387,81.5506409 361.918168,81.1867543 C362.202949,80.8228678 362.424441,80.4115239 362.582653,79.9527104 C362.740865,79.4938969 362.819969,79.0034485 362.819969,78.4813504 L362.819969,78.4813504 Z M361.253683,78.505082 C361.253683,79.3910667 360.976817,80.1109184 360.423076,80.6646588 C359.869336,81.2183993 359.157394,81.4952653 358.287231,81.4952653 L352.140743,81.4952653 L352.140743,75.491167 L358.287231,75.491167 C359.157394,75.491167 359.869336,75.7719883 360.423076,76.3336393 C360.976817,76.8952903 361.253683,77.6190973 361.253683,78.505082 L361.253683,78.505082 Z M268.486804,110.517997 C268.486804,110.343965 268.435386,110.205531 268.332549,110.102694 C268.229711,109.999856 268.091278,109.948438 267.917246,109.948438 L263.787945,109.948438 L263.787945,105.819138 C263.787945,105.645105 263.720706,105.494806 263.586226,105.368237 C263.451746,105.241668 263.297492,105.178384 263.12346,105.178384 C262.949427,105.178384 262.799128,105.241668 262.672559,105.368237 C262.54599,105.494806 262.482706,105.645105 262.482706,105.819138 L262.482706,109.948438 L258.353405,109.948438 C258.179372,109.948438 258.040939,109.999856 257.938102,110.102694 C257.835264,110.205531 257.783846,110.343965 257.783846,110.517997 C257.783846,110.69203 257.835264,110.834418 257.938102,110.945166 C258.040939,111.055914 258.179372,111.111288 258.353405,111.111288 L262.482706,111.111288 L262.482706,115.216857 C262.482706,115.390889 262.54599,115.545143 262.672559,115.679623 C262.799128,115.814103 262.949427,115.881342 263.12346,115.881342 C263.297492,115.881342 263.451746,115.814103 263.586226,115.679623 C263.720706,115.545143 263.787945,115.390889 263.787945,115.216857 L263.787945,111.111288 L267.917246,111.111288 C268.091278,111.111288 268.229711,111.055914 268.332549,110.945166 C268.435386,110.834418 268.486804,110.69203 268.486804,110.517997 L268.486804,110.517997 Z M294.116947,115.145662 L294.116947,100.432061 C294.116947,100.226386 294.045753,100.048401 293.903363,99.8981 C293.760972,99.7477991 293.586942,99.6726497 293.381267,99.6726497 C293.223056,99.6726497 293.084623,99.7161572 292.965964,99.8031736 C292.847305,99.8901899 292.756335,99.9969811 292.69305,100.12355 L286.594026,113.579375 L280.471269,100.147282 C280.407985,100.020713 280.32097,99.9099663 280.210222,99.8150394 C280.099473,99.7201124 279.957085,99.6726497 279.783052,99.6726497 C279.577377,99.6726497 279.403347,99.7438438 279.260957,99.8862342 C279.118567,100.028625 279.047372,100.202655 279.047372,100.40833 L279.047372,115.12193 C279.047372,115.327605 279.118567,115.505591 279.260957,115.655892 C279.403347,115.806193 279.577377,115.881342 279.783052,115.881342 C279.988727,115.881342 280.166713,115.806193 280.317014,115.655892 C280.467315,115.505591 280.542464,115.327605 280.542464,115.12193 L280.542464,103.612098 L285.92954,115.477904 C286.040289,115.746864 286.261781,115.881342 286.594026,115.881342 C286.910449,115.881342 287.131942,115.746864 287.258511,115.477904 C287.258511,115.477904 287.361347,115.248501 287.567022,114.789688 C287.772697,114.330874 288.037697,113.733635 288.362031,112.997951 C288.686365,112.262267 289.050246,111.443535 289.453685,110.541729 C289.857125,109.639923 290.256603,108.749996 290.652132,107.871922 C291.04766,106.993848 291.423407,106.17116 291.779383,105.403834 C292.135359,104.636508 292.424091,104.031358 292.645587,103.588366 L292.645587,115.145662 C292.645587,115.351337 292.716781,115.525367 292.859172,115.667757 C293.001562,115.810148 293.175592,115.881342 293.381267,115.881342 C293.586942,115.881342 293.760972,115.810148 293.903363,115.667757 C294.045753,115.525367 294.116947,115.351337 294.116947,115.145662 L294.116947,115.145662 Z M312.152974,115.145662 L312.152974,115.003272 C312.152974,114.939988 312.137153,114.884614 312.10551,114.837151 L305.413195,100.12355 C305.381553,100.044445 305.306404,99.9495191 305.187745,99.838771 C305.069086,99.7280229 304.922743,99.6726497 304.74871,99.6726497 C304.574677,99.6726497 304.424379,99.7280229 304.29781,99.838771 C304.17124,99.9495191 304.092136,100.044445 304.060493,100.12355 L297.368178,114.837151 C297.336536,114.884614 297.320715,114.939988 297.320715,115.003272 L297.320715,115.145662 C297.320715,115.462085 297.463103,115.683578 297.747884,115.810147 C297.842811,115.857611 297.945647,115.881342 298.056395,115.881342 C298.198785,115.881342 298.329308,115.837834 298.447967,115.750818 C298.566625,115.663802 298.657596,115.557011 298.72088,115.430441 L300.690604,111.063824 L308.783085,111.063824 L310.77654,115.454173 C310.839825,115.596563 310.930795,115.703354 311.049454,115.77455 C311.168112,115.845745 311.298635,115.881342 311.441025,115.881342 C311.535952,115.881342 311.630878,115.857611 311.725805,115.810147 C312.010585,115.683578 312.152974,115.462085 312.152974,115.145662 L312.152974,115.145662 Z M308.166063,109.711122 L301.307626,109.711122 L304.74871,102.117006 L308.166063,109.711122 Z M328.337934,112.297868 C328.337934,112.108014 328.25883,111.941895 328.100618,111.799504 C327.98987,111.688756 327.839571,111.633383 327.649718,111.633383 C327.444043,111.633383 327.270012,111.712488 327.127622,111.870699 C326.811199,112.266228 326.47896,112.630109 326.130894,112.962353 C325.782829,113.294598 325.403127,113.583329 324.991777,113.828557 C324.580427,114.073785 324.125575,114.263636 323.627209,114.398116 C323.128843,114.532596 322.571155,114.599835 321.95413,114.599835 C320.98904,114.599835 320.118889,114.409984 319.343653,114.030276 C318.568416,113.650568 317.903938,113.148254 317.350197,112.523319 C316.796457,111.898383 316.369292,111.174576 316.06869,110.351876 C315.768088,109.529176 315.617789,108.674846 315.617789,107.788862 C315.617789,106.902877 315.768088,106.052503 316.06869,105.237713 C316.369292,104.422924 316.796457,103.699117 317.350197,103.06627 C317.903938,102.433424 318.568416,101.93111 319.343653,101.559313 C320.118889,101.187516 320.98904,101.00162 321.95413,101.00162 C322.919221,101.00162 323.745864,101.179605 324.434084,101.535581 C325.122304,101.891557 325.782827,102.330588 326.415674,102.852686 C326.573885,102.979255 326.732094,103.042539 326.890306,103.042539 C327.08016,103.042539 327.238369,102.971345 327.364938,102.828954 C327.491507,102.702385 327.554791,102.544176 327.554791,102.354322 C327.554791,102.164468 327.483597,101.998349 327.341207,101.855958 C326.660897,101.112364 325.865896,100.550721 324.956179,100.171014 C324.046463,99.7913059 323.04579,99.6014549 321.95413,99.6014549 C320.815007,99.6014549 319.758961,99.8229477 318.78596,100.26594 C317.812959,100.708932 316.978405,101.306172 316.282274,102.057677 C315.586144,102.809182 315.040322,103.679332 314.644793,104.668154 C314.249264,105.656977 314.051503,106.697202 314.051503,107.788862 C314.051503,108.880521 314.249264,109.920747 314.644793,110.909569 C315.040322,111.898391 315.586144,112.768541 316.282274,113.520046 C316.978405,114.271551 317.812959,114.872746 318.78596,115.323649 C319.758961,115.774552 320.815007,116 321.95413,116 C323.235644,116 324.402436,115.723134 325.454543,115.169394 C326.50665,114.615653 327.412398,113.816697 328.171813,112.772501 C328.282561,112.645931 328.337934,112.487722 328.337934,112.297868 L328.337934,112.297868 Z M346.753667,107.788862 C346.753667,106.697202 346.55986,105.656977 346.172242,104.668154 C345.784624,103.679332 345.238802,102.809182 344.534761,102.057677 C343.830719,101.306172 342.996166,100.708932 342.031075,100.26594 C341.065985,99.8229477 340.013894,99.6014549 338.874771,99.6014549 C337.735648,99.6014549 336.679601,99.8229477 335.7066,100.26594 C334.733599,100.708932 333.895091,101.306172 333.191049,102.057677 C332.487008,102.809182 331.937231,103.679332 331.541702,104.668154 C331.146173,105.656977 330.948412,106.697202 330.948412,107.788862 C330.948412,108.880521 331.146173,109.920747 331.541702,110.909569 C331.937231,111.898391 332.487008,112.768541 333.191049,113.520046 C333.895091,114.271551 334.733599,114.872746 335.7066,115.323649 C336.679601,115.774552 337.735648,116 338.874771,116 C340.013894,116 341.065985,115.774552 342.031075,115.323649 C342.996166,114.872746 343.830719,114.271551 344.534761,113.520046 C345.238802,112.768541 345.784624,111.898391 346.172242,110.909569 C346.55986,109.920747 346.753667,108.880521 346.753667,107.788862 L346.753667,107.788862 Z M345.211112,107.788862 C345.211112,108.674846 345.060813,109.529176 344.760211,110.351876 C344.459609,111.174576 344.032444,111.902338 343.478704,112.535184 C342.924964,113.168031 342.25653,113.670345 341.473383,114.042142 C340.690235,114.413939 339.82404,114.599835 338.874771,114.599835 C337.925502,114.599835 337.055351,114.413939 336.264293,114.042142 C335.473236,113.670345 334.800847,113.168031 334.247106,112.535184 C333.693366,111.902338 333.262246,111.174576 332.953733,110.351876 C332.645221,109.529176 332.490967,108.674846 332.490967,107.788862 C332.490967,106.902877 332.645221,106.048547 332.953733,105.225847 C333.262246,104.403147 333.693366,103.67934 334.247106,103.054405 C334.800847,102.429469 335.473236,101.93111 336.264293,101.559313 C337.055351,101.187516 337.925502,101.00162 338.874771,101.00162 C339.82404,101.00162 340.690235,101.187516 341.473383,101.559313 C342.25653,101.93111 342.924964,102.429469 343.478704,103.054405 C344.032444,103.67934 344.459609,104.403147 344.760211,105.225847 C345.060813,106.048547 345.211112,106.902877 345.211112,107.788862 L345.211112,107.788862 Z M362.582653,115.145662 L362.582653,100.432061 C362.582653,100.226386 362.507504,100.048401 362.357203,99.8981 C362.206902,99.7477991 362.028916,99.6726497 361.823241,99.6726497 C361.617566,99.6726497 361.443536,99.7477991 361.301146,99.8981 C361.158756,100.048401 361.087561,100.226386 361.087561,100.432061 L361.087561,113.05728 C360.850244,112.740857 360.502184,112.266229 360.04337,111.633383 C359.584557,111.000537 359.070377,110.288596 358.500815,109.497538 C357.931254,108.70648 357.334014,107.867971 356.709079,106.981987 C356.084143,106.096002 355.482948,105.245628 354.905476,104.430838 C354.328004,103.616049 353.801958,102.86851 353.327324,102.188201 C352.852689,101.507891 352.480897,100.973935 352.211938,100.586317 C351.942978,100.198699 351.80059,99.9969818 351.784769,99.9811607 C351.721484,99.9020549 351.638424,99.8308608 351.535587,99.7675762 C351.432749,99.7042915 351.318048,99.6726497 351.191478,99.6726497 C350.969982,99.6726497 350.788042,99.7517543 350.645651,99.9099658 C350.503261,100.068177 350.432067,100.242207 350.432067,100.432061 L350.432067,115.145662 C350.432067,115.351337 350.503261,115.525367 350.645651,115.667757 C350.788042,115.810148 350.962072,115.881342 351.167747,115.881342 C351.373422,115.881342 351.551407,115.810148 351.701708,115.667757 C351.852009,115.525367 351.927158,115.351337 351.927158,115.145662 L351.927158,102.496712 L361.253683,115.596563 C361.396073,115.802238 361.593835,115.897163 361.846973,115.881342 C362.052648,115.865521 362.226678,115.790371 362.369069,115.655892 C362.511459,115.521412 362.582653,115.351337 362.582653,115.145662 L362.582653,115.145662 Z" id="GLASSER-Copy"></path>
        </g>
    </g>
</svg>