<?xml version="1.0" encoding="UTF-8" standalone="no"?>
<svg width="105px" height="34px" viewBox="0 0 105 34" version="1.1" xmlns="http://www.w3.org/2000/svg" xmlns:xlink="http://www.w3.org/1999/xlink">
    <!-- Generator: Sketch 39.1 (31720) - http://www.bohemiancoding.com/sketch -->
    <title>Group 2 Copy 2</title>
    <desc>Created with Sketch.</desc>
    <defs></defs>
    <g id="Page-2" stroke="none" stroke-width="1" fill="none" fill-rule="evenodd">
        <g id="Group-2-Copy-2" fill="#222222">
            <path d="M27.204167,11.9710531 L29.047739,11.9710531 L29.047739,1.03188342 L27.2491322,1.03188342 C26.7994805,1.64693713 25.9001771,1.91053158 25.1807344,1.91053158 C22.168068,1.91053158 19.5600881,0.592559335 16.2326656,0.46076211 C6.5201889,0.109302844 0.0452044406,7.22635298 0.000239270757,16.6718208 C-0.0447258991,26.4248154 6.25039788,33.5857979 16.7722476,33.5857979 C20.9989736,33.5857979 23.7418489,31.5649072 25.4505254,29.3243543 L29.2725648,33.0146766 L29.6772514,33.0146766 L29.6772514,22.7344931 C29.6772514,22.1194394 31.5657885,20.1864134 31.970475,20.1864134 L34.6592083,20.2303463 L36.2651073,18.5169813 L16.5474218,18.5169819 L16.5474218,20.2303458 L20.7291826,20.2303458 C21.1338691,20.2303458 22.9774411,22.2073042 22.9774411,22.8223579 L22.9774411,27.4791932 C22.3029635,29.0168275 20.1446354,30.686259 16.9970735,30.686259 C11.8710441,30.686259 8.40872603,26.6444774 7.77921365,21.0650616 C7.46445746,18.3412523 7.46445746,15.3099161 7.73424848,12.6300392 C8.49865637,5.16152979 12.2307655,2.61345011 16.6823173,2.70131493 C22.3029635,2.83311216 27.204167,10.3894864 27.204167,11.9710531 Z" id="G&amp;M-Copy"></path>
            <path d="M50.014116,28.951457 L50.5536981,29.5665108 C51.7677577,30.8405506 54.1958768,32.9053738 57.5682646,32.9053738 L65.0058714,32.905374 L65.6941138,31.2798751 L60.3561051,31.2798747 C59.6816276,30.884483 58.3326725,29.7422404 57.2535084,28.3803357 L54.1958768,24.7339459 C56.0394488,22.8448523 59.4568017,19.15453 61.4352692,17.0897068 C62.1097467,16.3428559 65.61703,13.4872493 66.2465423,13.4872493 L67.5055671,13.4872493 L67.5055671,11.8617502 L52.0375487,11.8617502 L52.0375487,13.4872493 L55.2750409,13.4872493 C55.8146229,13.4872493 57.5232994,15.9035318 57.5682646,17.001842 C57.1186129,18.5394763 54.1509117,21.52688 52.8918869,22.8448523 L46.4169025,14.3219651 L47.361171,13.7069114 C49.6993599,12.1692771 52.2623745,9.66512982 52.2623745,6.19446956 C52.2623745,2.37235005 49.1148126,0 44.7981563,0 C40.4365349,0 36.6594606,2.94347135 36.6594606,7.38064459 C36.6594606,10.1923187 37.9634505,12.8282632 39.0875798,14.2780327 L39.8969528,15.4642077 C36.2098089,17.3533013 32.1179784,20.2967726 32.1179784,24.9975403 C32.1179784,30.0497673 35.8051224,33.5643599 41.1110124,33.4325627 C44.8880867,33.3446979 47.630962,31.2798747 50.014116,28.951457 Z M37.4238685,25.3050672 C36.0299482,22.0101365 38.3681371,18.7591383 41.2009428,17.221504 L48.5302654,27.0623635 C46.2370418,29.3468487 42.1002462,30.5330237 39.5372315,28.1606737 C38.6379281,27.3259579 37.8735202,26.359445 37.4238685,25.3050672 Z M45.1578777,12.6086012 L43.7639574,10.4998456 C42.325072,8.34715757 39.4473011,9.40153537 39.4473011,6.19446956 C39.4473011,3.90998434 41.4257686,2.06482319 44.0787136,2.06482319 C46.6417283,2.06482319 48.4853003,3.82211952 48.4853003,6.32626679 C48.4853003,8.78648165 47.4061362,10.6755752 46.0122159,11.8617502 L45.1578777,12.6086012 Z" id="Combined-Shape"></path>
            <path d="M82.5817462,33.9776832 L94.452551,7.44250859 L94.6773769,7.44250859 L94.6773769,28.6179294 C94.6773769,29.2329831 92.7888397,31.2538739 92.2492577,31.2538739 L90.6305116,31.2538739 L90.6305116,32.879373 L104.88447,32.879373 L104.88447,31.2538739 L104.165028,31.2538739 C103.625446,31.2538739 101.781874,29.2329831 101.781874,28.6179294 L101.781874,5.15802336 C101.781874,4.58690205 103.715376,2.52207887 104.254958,2.52207887 L104.974401,2.52207887 L104.974401,0.89657976 L94.452551,0.89657976 L84.8300047,22.8188515 L84.5602137,22.8188515 L74.847737,0.89657976 L64.2359569,0.89657976 L64.2359569,2.52207887 L65.0003648,2.52207887 C65.4949817,2.52207887 67.4734491,4.49903724 67.4734491,5.15802336 L67.4734491,28.6179294 C67.4734491,29.2329831 65.5399468,31.2538739 65.0902951,31.2538739 L64.2359569,31.2538739 L64.2359569,32.879373 L74.2631898,32.879373 L74.2631898,31.2538739 L72.6444437,31.2538739 C72.1498268,31.2538739 70.1713593,29.2329831 70.1713593,28.6179294 L70.1713593,7.44250859 L70.3961852,7.44250859 L82.5817462,33.9776832 Z" id="Path"></path>
        </g>
    </g>
</svg>